<svg width="24" height="24" viewBox="0 0 24 24" fill="none" xmlns="http://www.w3.org/2000/svg">
<g clip-path="url(#clip0_1191_397)">
<path d="M4 8V6C4 5.46957 4.21071 4.96086 4.58579 4.58579C4.96086 4.21071 5.46957 4 6 4H8" stroke="#0B1C33" stroke-width="2" stroke-linecap="round" stroke-linejoin="round"/>
<path d="M4 16V18C4 18.5304 4.21071 19.0391 4.58579 19.4142C4.96086 19.7893 5.46957 20 6 20H8" stroke="#0B1C33" stroke-width="2" stroke-linecap="round" stroke-linejoin="round"/>
<path d="M16 4H18C18.5304 4 19.0391 4.21071 19.4142 4.58579C19.7893 4.96086 20 5.46957 20 6V8" stroke="#0B1C33" stroke-width="2" stroke-linecap="round" stroke-linejoin="round"/>
<path d="M16 20H18C18.5304 20 19.0391 19.7893 19.4142 19.4142C19.7893 19.0391 20 18.5304 20 18V16" stroke="#0B1C33" stroke-width="2" stroke-linecap="round" stroke-linejoin="round"/>
<path d="M8.60299 9.61C8.7929 9.41649 9.01947 9.26278 9.26946 9.15785C9.51946 9.05292 9.78787 8.99887 10.059 8.99887C10.3301 8.99887 10.5985 9.05292 10.8485 9.15785C11.0985 9.26278 11.3251 9.41649 11.515 9.61L12 10L12.5 9.604C12.6898 9.41262 12.9157 9.26084 13.1646 9.15747C13.4135 9.0541 13.6804 9.00121 13.95 9.00186C14.2195 9.00251 14.4862 9.05669 14.7346 9.16126C14.983 9.26583 15.2082 9.4187 15.397 9.611C15.7835 10.0045 16.0001 10.534 16.0001 11.0855C16.0001 11.6371 15.7835 12.1666 15.397 12.56L12 16L8.60299 12.56C8.21616 12.1665 7.99939 11.6368 7.99939 11.085C7.99939 10.5332 8.21616 10.0035 8.60299 9.61Z" stroke="#0B1C33" stroke-width="2" stroke-linecap="round" stroke-linejoin="round"/>
</g>
<defs>
<clipPath id="clip0_1191_397">
<rect width="24" height="24" fill="white"/>
</clipPath>
</defs>
</svg>
