<svg width="24" height="24" viewBox="0 0 24 24" fill="none" xmlns="http://www.w3.org/2000/svg">
<g clip-path="url(#clip0_1191_391)">
<path d="M14.7 13.5C13.6 11.5 13.259 11 12 11C10.741 11 10.264 11.755 9.16401 13.747C8.22201 15.45 6.31801 15.592 5.84301 17.038C5.74601 17.303 5.69801 17.715 5.70001 18C5.70001 19.176 6.48701 20 7.50001 20C8.75901 20 10.5 19 12 19C13.5 19 15.241 20 16.5 20C17.513 20 18.3 19.177 18.3 18C18.3 17.715 18.251 17.303 18.154 17.038C17.679 15.587 15.642 15.203 14.7 13.5Z" stroke="#0B1C33" stroke-width="2" stroke-linecap="round" stroke-linejoin="round"/>
<path d="M20.188 8.08197C20.0595 8.02767 19.9215 7.99978 19.782 7.99997H19.767C19.032 8.01197 18.207 8.74997 17.774 9.86597C17.255 11.201 17.494 12.566 18.312 12.918C18.441 12.973 18.579 13 18.718 13C19.457 13 20.293 12.258 20.729 11.134C21.245 9.79897 21.001 8.43397 20.188 8.08197Z" stroke="#0B1C33" stroke-width="2" stroke-linecap="round" stroke-linejoin="round"/>
<path d="M9.47401 8.99997C9.52901 8.99997 9.58301 8.99997 9.63701 8.98897C10.581 8.86097 11.17 7.64297 10.957 6.26697C10.754 4.96997 9.91001 3.99997 9.02501 3.99997C8.97001 3.99997 8.91601 3.99997 8.86201 4.01097C7.91801 4.13897 7.32901 5.35697 7.54201 6.73297C7.74601 8.02597 8.59001 8.99997 9.47501 8.99997H9.47401Z" stroke="#0B1C33" stroke-width="2" stroke-linecap="round" stroke-linejoin="round"/>
<path d="M16.456 6.73297C16.67 5.35697 16.081 4.13897 15.136 4.01097C15.0823 4.00354 15.0282 3.99986 14.974 3.99997C14.089 3.99997 13.246 4.96997 13.044 6.26697C12.83 7.64297 13.419 8.86097 14.364 8.98897C14.418 8.99597 14.472 8.99997 14.526 8.99997C15.411 8.99997 16.256 8.02597 16.456 6.73297Z" stroke="#0B1C33" stroke-width="2" stroke-linecap="round" stroke-linejoin="round"/>
<path d="M5.69001 12.918C6.50601 12.566 6.74401 11.199 6.22601 9.86597C5.79001 8.74197 4.95501 7.99997 4.21701 7.99997C4.07701 7.99997 3.94001 8.02697 3.81001 8.08197C2.99401 8.43397 2.75601 9.80097 3.27401 11.134C3.71001 12.258 4.54501 13 5.28301 13C5.42301 13 5.56001 12.973 5.69001 12.918Z" stroke="#0B1C33" stroke-width="2" stroke-linecap="round" stroke-linejoin="round"/>
</g>
<defs>
<clipPath id="clip0_1191_391">
<rect width="24" height="24" fill="white"/>
</clipPath>
</defs>
</svg>
