<svg width="25" height="24" viewBox="0 0 25 24" fill="none" xmlns="http://www.w3.org/2000/svg">
<g clip-path="url(#clip0_1191_449)">
<path d="M13.875 19L12.875 20L5.375 12.572C4.8803 12.0906 4.49064 11.512 4.23054 10.8726C3.97045 10.2333 3.84556 9.54695 3.86373 8.85693C3.88191 8.16692 4.04276 7.48814 4.33615 6.86334C4.62955 6.23854 5.04913 5.68126 5.56848 5.22658C6.08783 4.77191 6.6957 4.42969 7.35381 4.22148C8.01191 4.01327 8.706 3.94359 9.39236 4.0168C10.0787 4.09002 10.7425 4.30456 11.3419 4.64691C11.9412 4.98926 12.4632 5.452 12.875 6.006C13.6702 4.94474 14.8545 4.24285 16.1673 4.05475C17.48 3.86665 18.8137 4.20775 19.875 5.003C20.9363 5.79825 21.6381 6.98252 21.8262 8.29527C22.0143 9.60803 21.6732 10.9417 20.878 12.003" stroke="#FEFEFE" stroke-width="2" stroke-linecap="round" stroke-linejoin="round"/>
<path d="M19.875 16L17.875 19H21.875L19.875 22" stroke="#FEFEFE" stroke-width="2" stroke-linecap="round" stroke-linejoin="round"/>
</g>
<defs>
<clipPath id="clip0_1191_449">
<rect width="24" height="24" fill="white" transform="translate(0.875)"/>
</clipPath>
</defs>
</svg>
